<svg xmlns="http://www.w3.org/2000/svg" xmlns:xlink="http://www.w3.org/1999/xlink" width="20" height="20" viewBox="0 0 20 20">
  <defs>
    <clipPath id="clip-path">
      <rect id="Rectangle_1981" data-name="Rectangle 1981" width="20" height="20" transform="translate(1190 980)" fill="#7009ff"/>
    </clipPath>
  </defs>
  <g id="Mask_Group_11" data-name="Mask Group 11" transform="translate(-1190 -980)" clip-path="url(#clip-path)">
    <g id="download-arrow">
      <path id="Path_3533" data-name="Path 3533" d="M18.944,42.906H12.391l-.879,1a2.013,2.013,0,0,1-3.023,0l-.879-1H1.059A1.059,1.059,0,0,0,0,43.965v4.2a1.059,1.059,0,0,0,1.059,1.059H18.941A1.059,1.059,0,0,0,20,48.167v-4.2A1.056,1.056,0,0,0,18.944,42.906Zm-16,4.063a.9.9,0,1,1,.9-.9A.9.9,0,0,1,2.947,46.969Z" transform="translate(1190 949.353)" />
      <path id="Path_3534" data-name="Path 3534" d="M19.37,15.813l.326.373a1.06,1.06,0,0,0,1.592,0l.326-.373,4.418-5.034a1.059,1.059,0,0,0-.8-1.757H23.847V6.034a1.059,1.059,0,0,0-1.059-1.059H18.195a1.059,1.059,0,0,0-1.059,1.059V9.024H15.747a1.059,1.059,0,0,0-.8,1.757Z" transform="translate(1179.509 976.446)" />
    </g>
  </g>
</svg>
